<?xml version="1.0" standalone="no"?>
<!DOCTYPE svg PUBLIC "-//W3C//DTD SVG 20010904//EN"
 "http://www.w3.org/TR/2001/REC-SVG-20010904/DTD/svg10.dtd">
<svg version="1.0" xmlns="http://www.w3.org/2000/svg"
 width="1024.000000pt" height="768.000000pt" viewBox="0 0 1024.000000 768.000000"
 preserveAspectRatio="xMidYMid meet">

<g transform="translate(0.000000,768.000000) scale(0.100000,-0.100000)"
fill="#000000" stroke="none">
<path d="M6915 6276 c-16 -13 -80 -49 -141 -80 -61 -31 -128 -67 -148 -81 -46
-31 -48 -31 -41 3 6 24 5 25 -8 10 -8 -10 -36 -41 -62 -69 -44 -47 -50 -50
-73 -40 -13 7 -27 9 -30 6 -3 -3 -1 -5 4 -5 5 0 15 -4 23 -9 11 -7 9 -15 -13
-43 -14 -19 -26 -38 -26 -42 0 -8 53 38 103 92 49 51 60 47 22 -8 -15 -22 -25
-43 -21 -47 3 -3 7 -4 9 -2 20 30 88 109 107 126 32 27 217 126 229 121 20 -7
-30 -123 -72 -165 -50 -52 -45 -64 10 -24 59 43 152 87 197 94 38 6 38 6 20
-15 -61 -67 -84 -88 -98 -88 -9 0 -16 -4 -16 -10 0 -14 22 -13 114 9 44 11
128 25 186 31 58 6 114 13 125 16 23 7 -19 -35 -100 -99 -48 -38 -65 -65 -37
-59 7 1 33 -11 57 -28 59 -40 69 -37 20 6 l-40 35 75 70 c41 39 94 84 118 101
24 16 41 32 39 35 -3 2 -36 -7 -74 -20 -38 -14 -114 -30 -173 -36 -58 -6 -132
-18 -165 -25 -33 -8 -61 -13 -63 -12 -3 4 81 85 156 151 23 21 40 40 37 43 -3
3 -13 -2 -22 -10 -28 -25 -99 -57 -171 -79 -37 -12 -82 -29 -99 -40 -18 -10
-33 -14 -33 -8 0 17 68 148 96 185 31 40 22 44 -21 10z"/>
<path d="M6400 6130 c-104 -123 -128 -162 -136 -223 -6 -42 -9 -47 -21 -34 -8
8 -17 33 -20 56 -10 77 -26 27 -26 -82 0 -92 2 -108 22 -136 16 -22 21 -41 18
-59 -3 -15 -1 -35 4 -44 6 -11 5 -24 -2 -36 -9 -14 -8 -25 5 -50 23 -44 21
-94 -4 -110 -41 -25 -21 -113 44 -190 20 -24 36 -53 36 -64 0 -21 51 -77 105
-115 28 -20 29 -22 10 -29 -38 -14 -64 -46 -71 -89 l-6 -43 -61 5 c-34 3 -69
12 -78 19 -8 8 -22 14 -30 14 -8 0 -30 16 -48 35 -19 19 -43 37 -53 41 -9 3
-22 22 -28 42 -13 48 -13 54 5 88 19 37 19 68 0 84 -8 7 -15 24 -15 39 0 66
-32 79 -205 82 -140 3 -159 1 -181 -15 -19 -14 -19 -15 5 -47 l24 -33 -38 -33
c-47 -41 -51 -39 -54 31 l-1 34 -49 -26 c-27 -15 -53 -23 -57 -19 -5 4 -11 41
-14 83 l-5 75 -75 -85 c-90 -101 -103 -110 -94 -61 9 48 -8 45 -46 -10 -17
-25 -34 -45 -38 -45 -5 0 -16 25 -27 55 -10 30 -21 55 -24 55 -3 0 -50 -72
-105 -160 -54 -88 -102 -160 -107 -160 -12 0 -32 40 -39 80 l-6 35 -12 -40
c-25 -84 -36 -202 -26 -265 10 -61 8 -70 -14 -48 -9 9 -12 8 -12 -5 0 -23 39
-139 51 -151 5 -6 9 -36 9 -69 0 -32 4 -56 9 -53 5 3 11 -4 15 -17 9 -33 7
-49 -4 -42 -14 9 -12 -1 5 -36 9 -16 27 -67 40 -113 13 -46 36 -110 50 -141
14 -32 25 -61 25 -65 0 -5 -27 -11 -59 -15 -51 -6 -60 -10 -63 -28 -5 -34 -40
-28 -49 7 -7 24 -4 32 11 43 22 15 25 34 11 61 -16 30 -32 126 -25 158 5 25 2
32 -20 42 -14 6 -26 19 -26 28 0 14 -8 16 -43 12 l-44 -5 -11 71 c-28 180
-105 368 -177 434 -51 47 -159 104 -251 131 -94 28 -238 29 -315 2 -117 -40
-237 -122 -323 -219 -16 -18 -35 -31 -42 -28 -7 3 -21 -3 -32 -12 -11 -9 -41
-33 -66 -52 -49 -38 -59 -56 -23 -46 49 14 127 19 127 7 0 -6 -10 -11 -21 -11
-17 0 -20 -4 -16 -22 6 -21 -16 -58 -34 -58 -4 0 -20 -5 -35 -10 -26 -10 -26
-11 -9 -30 22 -24 35 -26 35 -5 0 8 5 15 10 15 18 0 10 -29 -10 -35 -15 -5
-38 7 -83 40 -72 55 -86 61 -187 82 -92 19 -383 13 -501 -11 -78 -15 -184 -56
-231 -88 -27 -19 -78 -16 -78 4 0 5 -16 6 -37 3 -60 -11 -74 -16 -67 -27 3 -5
15 -7 25 -5 11 3 35 1 53 -4 27 -7 39 -19 55 -52 12 -24 21 -56 21 -71 0 -15
5 -36 11 -47 9 -17 6 -25 -15 -44 -35 -33 -34 -78 3 -137 16 -26 39 -52 50
-58 11 -6 30 -32 41 -58 18 -41 30 -53 83 -81 88 -48 87 -47 75 -84 -18 -55
-24 -61 -79 -89 -73 -36 -89 -36 -89 2 0 17 -7 47 -15 67 l-15 36 -59 -7 -59
-7 -7 51 c-10 76 -28 84 -171 78 -91 -4 -119 -9 -134 -23 -11 -10 -20 -23 -20
-28 0 -6 9 -2 20 8 28 26 248 35 272 12 26 -27 17 -68 -21 -94 -41 -28 -47
-28 -53 -5 -4 15 -19 20 -78 25 -40 3 -83 13 -97 22 -25 17 -40 15 -29 -3 9
-15 95 -42 132 -42 23 0 38 -7 49 -22 15 -22 14 -25 -29 -63 l-45 -40 6 -58
c5 -50 10 -60 34 -74 16 -10 29 -25 29 -34 0 -10 15 -28 32 -41 18 -12 40 -31
48 -41 13 -15 32 -19 100 -21 72 -3 92 1 132 21 90 44 103 30 68 -72 -11 -32
-20 -68 -20 -81 0 -28 58 -80 100 -89 53 -12 29 -29 -36 -26 -86 3 -162 -27
-214 -87 -26 -29 -39 -53 -37 -64 3 -10 -3 -40 -14 -68 -35 -92 -20 -123 72
-156 54 -20 54 -21 37 -59 -9 -21 -9 -31 1 -47 7 -11 10 -22 8 -25 -3 -2 -31
-11 -64 -20 -80 -20 -94 -35 -92 -95 3 -77 12 -83 126 -85 108 -2 214 6 233
17 7 5 13 43 15 104 1 53 5 99 8 102 3 3 3 12 0 20 -4 11 5 14 40 14 55 0 68
15 75 81 4 41 10 53 31 66 14 9 38 28 54 42 l27 25 27 -20 c33 -25 83 -118 83
-155 0 -54 72 -84 205 -85 50 -1 111 -4 137 -7 54 -6 68 5 88 68 17 54 21 59
31 44 5 -8 6 -30 2 -49 -4 -19 -7 -46 -7 -59 -1 -20 -11 -29 -55 -47 -71 -28
-93 -55 -89 -108 l3 -41 157 0 c129 0 160 3 173 16 24 24 29 246 7 274 -14 17
-17 40 -14 146 l3 127 45 7 c24 3 48 3 54 0 5 -3 10 -27 10 -53 0 -26 3 -70 6
-99 l7 -51 71 -23 c58 -18 94 -23 197 -23 144 -1 156 4 161 67 3 35 6 42 23
40 11 -2 64 4 119 13 85 13 101 13 115 1 9 -8 31 -18 48 -22 30 -6 33 -10 39
-58 5 -40 14 -59 39 -82 22 -21 31 -39 31 -60 -1 -27 -8 -34 -71 -66 -62 -32
-70 -39 -79 -73 -13 -58 -14 -58 219 -59 55 0 113 3 128 7 l29 7 -7 102 c-3
56 -11 111 -16 122 -6 13 -7 40 -2 70 l8 50 65 5 64 5 14 40 c8 22 18 52 24
66 14 39 74 63 141 56 34 -3 64 0 86 9 18 8 35 14 37 14 1 0 21 -35 44 -78 22
-43 53 -93 69 -112 l28 -34 74 17 c41 10 113 17 162 17 l88 0 -20 -26 c-12
-15 -21 -39 -21 -55 0 -35 -24 -49 -84 -49 -52 0 -98 -33 -120 -85 -15 -36
-10 -121 7 -132 6 -4 108 -6 227 -5 206 3 216 4 233 24 14 17 17 31 11 62 -11
64 -10 68 11 72 44 7 75 98 75 223 l0 85 41 42 42 43 3 93 c2 57 -2 112 -10
143 -33 121 -27 195 17 195 10 0 30 9 44 20 21 16 35 18 82 14 46 -5 65 -2 99
15 95 49 142 11 126 -103 -14 -106 -10 -148 16 -200 21 -40 36 -55 85 -81 33
-18 85 -41 116 -53 31 -11 73 -32 94 -46 87 -60 212 -9 250 100 15 44 25 47
42 13 14 -27 67 -49 100 -42 19 4 23 -1 33 -39 7 -23 18 -57 25 -74 26 -61
150 -95 204 -57 23 16 24 19 17 120 -3 60 -1 134 5 173 9 61 8 74 -9 114 -18
40 -26 46 -75 62 -42 13 -64 15 -89 8 -25 -8 -47 -6 -93 8 -59 19 -59 19 -87
-2 l-28 -21 0 21 c0 34 -19 61 -56 76 -41 17 -59 44 -75 109 -6 28 -18 66 -26
86 -8 20 -16 72 -17 115 -1 63 2 82 16 96 28 28 24 103 -7 129 -23 21 -23 23
-9 57 11 27 12 48 5 91 -5 31 -13 98 -16 149 l-7 92 52 -2 c43 -2 54 -6 63
-25 7 -15 23 -25 50 -30 34 -7 42 -13 49 -38 7 -28 12 -130 8 -183 -1 -15 10
-35 29 -54 17 -17 31 -34 31 -39 0 -15 84 -58 128 -65 56 -9 115 17 143 63 19
31 20 35 5 57 -15 24 -50 39 -118 51 -32 5 -38 10 -38 31 0 13 -7 27 -15 30
-11 5 -15 22 -15 70 l0 63 44 30 c24 17 46 38 50 46 12 32 6 84 -11 93 -14 9
-15 15 -3 55 16 58 11 69 -35 91 -20 10 -44 32 -54 49 -35 66 -42 69 -151 61
-85 -6 -100 -5 -105 9 -4 8 -17 18 -30 21 -18 5 -23 13 -23 34 1 36 -16 68
-48 88 l-25 17 29 26 c16 14 37 46 48 71 10 25 31 60 46 78 19 22 27 40 23 52
-3 10 -2 21 4 24 5 3 17 -15 26 -41 10 -27 20 -55 23 -63 4 -8 9 17 12 57 3
47 9 70 15 65 15 -10 67 -80 99 -132 16 -25 26 -38 23 -29 -10 30 -26 93 -43
164 -9 39 -22 85 -30 104 -8 19 -12 36 -10 38 10 11 106 -50 145 -92 23 -26
45 -45 47 -42 5 5 -101 175 -129 206 l-22 24 40 -7 c22 -4 50 -10 63 -13 31
-7 28 10 -5 24 -35 16 -145 121 -138 133 5 8 88 6 180 -5 46 -5 48 -5 30 9
-11 9 -52 41 -92 73 -70 56 -91 82 -55 68 9 -4 33 -9 52 -11 30 -5 26 -1 -32
29 -44 23 -75 33 -92 30 -32 -7 -33 -14 -2 -33 24 -15 136 -116 136 -123 0 -2
-42 -3 -94 -2 l-95 1 29 -36 c16 -20 49 -55 74 -78 25 -23 46 -44 46 -47 0
-12 -64 17 -80 37 -11 13 -19 19 -20 13 0 -11 71 -118 97 -148 20 -22 11 -33
-10 -12 -9 8 -22 15 -30 15 -8 0 -31 11 -52 25 -44 30 -53 27 -32 -12 26 -49
54 -126 60 -167 l6 -40 -47 54 c-26 30 -68 75 -94 101 -26 26 -71 82 -99 125
-64 96 -58 89 -65 81 -3 -3 5 -21 19 -39 14 -18 39 -62 56 -98 l32 -65 -53 51
c-29 28 -85 72 -124 96 -39 25 -90 65 -114 89 -36 38 -41 40 -35 19 4 -14 16
-40 27 -58 11 -18 19 -35 16 -37 -2 -2 -30 21 -63 52 l-59 56 -116 8 c-63 4
-139 13 -169 19 -29 5 -78 10 -107 10 -47 0 -56 3 -71 26 -14 22 -37 143 -29
151 2 2 15 -18 29 -45 l27 -47 0 50 c0 56 59 187 108 240 15 17 40 46 56 65
l29 35 -7 -33 c-3 -17 -9 -45 -12 -62 -3 -18 -1 -30 5 -30 6 0 11 13 11 28 0
15 7 54 15 87 9 32 14 62 13 66 -2 4 -41 -37 -88 -91z m426 -621 c37 -36 41
-44 28 -56 -19 -19 -18 -68 2 -87 22 -23 11 -20 -54 13 -31 16 -70 43 -85 59
-25 26 -27 33 -17 53 37 71 68 75 126 18z m147 -62 c94 -64 101 -76 70 -128
-21 -35 -46 -37 -114 -8 -49 21 -64 39 -32 39 27 0 53 31 53 62 0 22 -8 33
-35 49 -19 12 -35 25 -35 30 0 11 42 -9 93 -44z m-583 13 c86 -12 201 -51 326
-110 101 -47 144 -78 87 -63 -48 13 -116 6 -259 -26 -77 -17 -155 -35 -176
-40 l-36 -8 -16 86 c-8 47 -17 105 -20 129 -5 48 -8 47 94 32z m487 -40 c-6
-16 -15 -30 -19 -30 -12 0 -9 35 4 48 21 21 27 13 15 -18z m50 -34 c-4 -9 -11
-16 -17 -16 -6 0 -8 5 -5 10 3 6 -1 10 -9 10 -19 0 -20 12 -4 28 16 16 43 -10
35 -32z m-643 -66 c20 -85 20 -86 -1 -69 -32 27 -57 122 -37 142 13 13 23 -5
38 -73z m-520 -9 c3 -4 -5 -18 -18 -30 -20 -19 -28 -21 -45 -12 -24 13 -26 22
-9 39 14 14 64 16 72 3z m1452 -27 c-3 -9 -6 -21 -6 -27 0 -7 -4 -7 -9 2 -10
16 -4 41 11 41 6 0 7 -7 4 -16z m-1326 -59 c16 -19 4 -35 -25 -35 -27 0 -39
14 -31 35 7 19 40 19 56 0z m-32 -79 c3 -11 -4 -16 -21 -16 -24 0 -42 23 -32
40 8 14 50 -5 53 -24z m166 -78 c30 -42 21 -61 -41 -86 -34 -14 -59 -19 -62
-13 -4 5 -5 30 -3 54 3 34 9 47 25 55 36 17 65 13 81 -10z m-1779 -109 c133
-19 252 -74 311 -141 46 -52 91 -153 129 -283 28 -97 36 -143 40 -240 3 -89 2
-110 -5 -82 -5 21 -18 52 -27 70 -10 18 -20 55 -23 82 -8 68 -16 41 -28 -95
-11 -118 -30 -210 -44 -210 -4 0 -8 45 -8 99 0 55 -4 101 -10 103 -5 2 -14 57
-20 123 -20 224 -50 337 -103 394 -37 39 -134 106 -174 122 -15 6 -43 22 -61
36 -22 16 -39 22 -50 17 -24 -10 -192 -15 -192 -5 0 14 91 29 145 24 28 -2 82
-9 120 -14z m-320 -47 c-34 -30 -138 -119 -172 -148 -12 -11 -35 -45 -50 -76
-26 -52 -29 -55 -47 -42 -19 13 -19 15 -1 54 25 55 115 143 200 196 80 49 116
58 70 16z m225 -2 c0 -26 -40 -42 -94 -38 -33 2 -42 7 -44 25 -4 25 10 30 86
32 46 1 52 -1 52 -19z m79 -16 c18 -19 46 -60 63 -90 17 -30 33 -53 35 -50 8
8 -17 73 -33 86 -58 49 63 -4 127 -55 56 -45 96 -148 105 -275 5 -71 4 -73
-10 -45 l-15 30 7 -35 c10 -52 8 -357 -2 -415 l-9 -50 -9 55 c-18 123 -50 279
-69 337 -10 34 -19 69 -19 78 0 8 -4 15 -9 15 -5 0 -12 12 -16 28 -17 68 -119
272 -159 317 -32 36 -50 33 -27 -4 5 -8 3 -27 -6 -49 -10 -24 -11 -38 -4 -45
7 -7 15 0 24 22 l14 33 36 -58 c19 -33 47 -88 62 -124 28 -67 75 -255 75 -303
0 -21 4 -27 18 -25 14 2 20 -10 32 -71 l14 -73 -24 -20 c-68 -55 -217 -98
-341 -98 -44 0 -226 41 -251 56 -13 8 -3 183 11 197 6 6 18 -19 31 -62 11 -39
23 -71 25 -71 3 0 2 38 -1 85 l-7 85 25 0 c53 0 64 55 15 78 -31 15 -31 11
-13 167 25 209 41 255 66 189 10 -24 30 -33 30 -13 0 8 -36 82 -57 118 -20 33
-53 -185 -65 -427 -1 -24 -6 -46 -10 -48 -4 -3 -5 -24 -2 -47 5 -32 4 -39 -5
-31 -7 6 -17 71 -24 150 -7 79 -16 133 -20 126 -5 -7 -7 -67 -6 -135 1 -67 -3
-171 -10 -230 -9 -79 -9 -129 -1 -184 5 -42 8 -78 6 -81 -8 -7 -48 79 -78 168
-28 82 -47 217 -42 290 1 19 -1 41 -6 49 -4 8 -11 -28 -15 -88 -4 -56 -10
-100 -12 -97 -3 3 -5 56 -4 118 1 125 33 263 75 328 26 38 148 161 154 155 3
-2 -3 -23 -12 -46 -28 -68 -12 -54 30 28 21 42 44 78 51 81 14 4 40 -53 54
-120 6 -27 14 -48 19 -48 5 0 11 -8 15 -18 3 -11 17 -24 30 -30 31 -14 36 -5
59 105 19 86 32 123 45 123 5 0 23 -16 40 -36z m891 -122 c0 -32 -4 -52 -8
-44 -8 12 -34 -83 -48 -178 -6 -44 -22 -85 -25 -65 0 6 -7 -8 -14 -30 l-12
-40 -7 69 c-5 38 -10 76 -13 84 -9 22 -23 -6 -23 -45 0 -18 -5 -33 -11 -33 -6
0 -8 8 -5 18 7 24 23 126 31 195 4 32 9 56 13 53 3 -4 8 -50 12 -104 6 -97 12
-103 26 -27 l8 40 5 -35 c5 -30 9 -20 29 71 12 58 22 114 22 123 0 9 5 14 10
11 6 -3 10 -32 10 -63z m584 -129 c3 -4 6 3 6 15 0 12 5 22 10 22 6 0 10 -15
10 -32 0 -35 14 -66 23 -52 2 5 12 53 22 107 10 54 20 95 24 92 3 -4 7 -41 8
-83 1 -42 2 -83 2 -89 1 -7 7 -13 15 -13 17 0 24 -17 18 -46 -3 -16 -9 -20
-23 -17 -17 5 -23 22 -22 61 1 6 -3 12 -7 12 -4 0 -15 -40 -25 -90 -17 -87
-35 -111 -35 -47 0 22 -3 28 -9 18 -9 -13 -41 136 -41 191 0 15 -4 30 -10 33
-12 7 -14 88 -2 99 4 4 12 -33 18 -84 7 -50 14 -94 18 -97z m-356 102 c-11
-25 -10 -29 11 -46 30 -24 43 -24 66 1 18 20 18 21 -3 42 -21 21 -22 21 -42 3
-18 -17 -20 -17 -14 -2 9 26 37 37 88 37 38 0 46 -3 46 -19 0 -10 7 -21 15
-25 10 -4 15 1 15 15 0 11 5 17 10 14 6 -3 9 -25 9 -48 -1 -23 -3 -34 -6 -24
-5 21 -28 18 -28 -4 0 -11 -27 -14 -145 -14 l-145 0 -3 36 c-3 41 2 45 76 55
26 3 49 8 51 10 11 10 10 -6 -1 -31z m-1247 12 c-1 -4 -1 -14 -1 -22 0 -8 -4
-15 -9 -15 -12 0 -23 29 -15 41 6 11 26 8 25 -4z m1313 -38 c-3 -5 -10 -7 -15
-3 -5 3 -7 10 -3 15 3 5 10 7 15 3 5 -3 7 -10 3 -15z m-1784 -3 c0 -3 -4 -16
-10 -30 -7 -19 -17 -26 -35 -26 -32 0 -31 5 3 35 25 23 42 31 42 21z m39 -128
c-5 -18 -9 -34 -9 -35 0 -11 -42 0 -46 11 -9 24 15 56 41 56 22 0 23 -2 14
-32z m1921 2 c33 -17 40 -29 40 -71 0 -30 -3 -35 -21 -35 -12 1 -26 -7 -33
-16 -16 -26 5 -54 39 -51 l28 2 -6 -102 c-4 -56 -9 -118 -12 -137 -3 -19 3 -7
14 26 10 34 22 86 27 115 7 49 8 51 15 24 3 -16 7 -69 8 -117 1 -83 0 -88 -24
-104 -23 -15 -30 -15 -102 2 -91 20 -148 20 -243 -2 -48 -11 -74 -12 -87 -5
-24 12 -51 97 -58 186 -4 39 -8 81 -11 94 -4 20 -2 23 16 18 20 -5 50 15 50
33 0 14 -30 40 -46 40 -15 0 -20 46 -6 66 7 12 81 40 122 48 51 9 265 -1 290
-14z m456 -25 c12 -14 39 -25 68 -29 26 -4 68 -16 92 -26 24 -11 50 -17 57
-14 8 3 25 0 39 -5 24 -9 25 -12 17 -57 -5 -26 -27 -81 -50 -121 -37 -68 -39
-76 -26 -96 19 -29 11 -187 -9 -187 -7 0 -19 -8 -26 -18 -7 -10 -29 -24 -48
-31 -19 -7 -63 -27 -97 -44 -58 -28 -64 -30 -80 -15 -10 9 -39 19 -65 23 -26
4 -49 13 -52 20 -3 8 -31 16 -70 20 -36 4 -66 11 -66 15 0 13 41 100 46 100 3
0 17 -9 31 -20 34 -27 47 -25 28 3 -8 13 -20 48 -26 78 -13 63 -3 94 52 166
29 38 32 50 35 123 2 61 8 89 24 114 19 32 23 34 63 29 25 -4 50 -15 63 -28z
m-2909 -19 c1 -1 -5 -16 -14 -34 -9 -18 -13 -35 -9 -39 9 -9 35 28 36 52 1 20
1 20 15 1 21 -28 19 -47 -6 -53 -14 -4 -19 -11 -16 -25 8 -28 -29 -38 -142
-38 -76 0 -101 4 -111 15 -7 8 -20 14 -28 13 -10 -2 -18 7 -22 22 -9 33 -2 50
18 43 11 -5 14 -2 9 11 -5 12 0 19 19 26 51 20 120 7 84 -15 -5 -3 -10 -19
-10 -35 0 -39 37 -65 73 -51 33 13 40 26 28 50 -15 27 -42 34 -60 16 -14 -13
-14 -18 -2 -38 13 -20 13 -21 -2 -8 -32 26 -15 81 25 81 10 0 18 4 18 10 0 7
85 4 97 -4z m507 -123 c-3 -60 -2 -134 4 -165 l9 -58 -32 0 c-41 0 -45 10 -45
116 0 83 1 85 22 78 22 -6 22 -6 5 19 -17 26 -23 97 -10 110 3 4 17 7 30 7
l23 0 -6 -107z m2232 41 c9 -34 -1 -90 -21 -121 -22 -33 -29 -23 -16 24 6 21
11 57 11 81 0 46 16 57 26 16z m-668 -11 c-4 -22 -22 -20 -26 1 -2 10 3 16 13
16 10 0 15 -7 13 -17z m412 -3 c0 -11 -7 -20 -15 -20 -8 0 -15 9 -15 20 0 11
7 20 15 20 8 0 15 -9 15 -20z m-2073 -8 c15 -9 16 -19 14 -139 -1 -92 -3 -103
-19 -103 -10 0 -22 12 -29 31 -7 19 -23 34 -42 42 l-31 11 31 32 c26 27 29 35
20 52 -12 23 -15 65 -4 75 9 9 45 9 60 -1z m3837 -69 c3 -10 6 -36 8 -57 l3
-39 -50 -13 c-28 -7 -53 -13 -57 -14 -5 0 -8 32 -8 70 l0 70 49 0 c39 0 51 -4
55 -17z m-4113 -8 c84 -18 135 -40 144 -62 8 -22 8 -172 0 -228 -7 -44 -17
-56 -30 -35 -3 6 -11 10 -17 10 -6 0 -3 -9 7 -20 10 -11 15 -26 11 -35 -5 -15
-9 -14 -36 5 -36 26 -40 16 -5 -11 27 -22 24 -54 -6 -46 -11 3 -16 0 -13 -8 9
-21 -47 -57 -76 -50 -28 7 -43 8 -175 5 -97 -2 -125 -7 -125 -20 0 -4 9 -6 20
-3 19 5 19 4 4 -33 -18 -43 -14 -112 8 -125 7 -5 9 -9 3 -9 -30 0 -38 20 -38
87 1 66 1 67 -14 39 -14 -27 -14 -64 2 -113 6 -17 2 -22 -22 -27 -15 -3 -50
-4 -78 -1 -42 3 -50 6 -50 24 0 11 -8 26 -18 33 -17 13 -17 16 -3 43 8 17 17
37 20 47 2 9 19 19 37 23 l33 7 -60 25 c-32 14 -61 28 -64 32 -3 3 -18 12 -34
19 -25 11 -26 15 -15 30 13 15 12 16 -3 4 -35 -28 -52 15 -20 52 17 21 17 21
-4 4 -11 -10 -23 -18 -26 -18 -11 0 -27 86 -34 181 l-7 96 44 21 c127 61 472
92 640 57z m674 -16 c7 -20 -7 -38 -27 -39 -13 0 -19 20 -13 40 8 26 32 26 40
-1z m1185 -42 c0 -7 16 -49 34 -94 19 -46 30 -83 24 -83 -6 0 -26 9 -44 21
l-34 21 0 79 c0 51 4 78 10 74 6 -3 10 -12 10 -18z m-280 -17 c12 -7 12 -12
-4 -29 -17 -19 -18 -23 -4 -38 19 -22 38 -97 29 -112 -4 -6 -32 -12 -62 -14
-52 -2 -54 -1 -57 26 -3 25 24 112 49 158 11 21 26 24 49 9z m-2290 -60 c0
-14 -7 -20 -22 -20 l-23 0 24 -19 c14 -11 21 -23 17 -30 -4 -7 0 -23 9 -37 9
-14 15 -33 13 -42 -3 -12 -14 -2 -36 32 -33 52 -41 103 -20 124 18 18 38 14
38 -8z m928 8 c28 -28 8 -112 -37 -152 -21 -19 -21 -19 -21 1 0 11 7 26 16 34
10 8 13 21 9 37 -3 13 0 31 7 40 11 13 10 15 -4 9 -13 -5 -18 -1 -18 12 0 31
25 42 48 19z m1192 3 c0 -5 3 -16 6 -25 4 -11 1 -16 -10 -16 -10 0 -16 9 -16
25 0 14 5 25 10 25 6 0 10 -4 10 -9z m-124 -129 c-4 -47 -13 -96 -22 -110
l-15 -27 5 25 c4 14 9 74 13 134 5 84 8 104 16 85 5 -13 6 -62 3 -107z m-783
-139 c17 -33 17 -33 -5 -33 -33 0 -88 84 -94 141 -4 41 -3 42 6 13 5 -17 16
-37 24 -43 13 -11 13 -4 1 46 -26 105 -14 110 19 8 18 -55 40 -115 49 -132z
m929 181 c4 -16 9 -46 10 -67 1 -21 9 -48 19 -61 11 -14 21 -56 28 -116 7 -52
14 -97 17 -100 3 -3 33 -7 67 -10 l62 -5 15 -59 c19 -75 33 -84 106 -68 32 6
59 10 62 8 2 -3 -4 -67 -14 -143 -17 -131 -20 -139 -48 -163 -16 -14 -55 -32
-85 -41 -51 -15 -77 -25 -163 -62 -20 -8 -28 -19 -28 -36 l0 -24 19 24 c24 31
177 85 214 75 36 -9 74 -63 103 -146 30 -86 33 -152 10 -205 l-17 -40 -19 25
c-11 14 -36 57 -55 97 -65 129 -104 170 -188 194 -24 7 -30 5 -34 -11 -3 -11
-10 -20 -15 -20 -6 0 -7 -11 -4 -24 5 -19 1 -25 -16 -29 -12 -4 -29 0 -38 7
-29 26 -59 28 -89 7 -19 -14 -45 -21 -75 -21 -45 0 -45 0 -56 43 -18 70 -51
160 -73 197 -24 41 -39 101 -39 150 1 172 8 240 22 241 8 1 41 2 72 3 l57 2 6
-50 c12 -93 35 -171 56 -188 13 -11 38 -18 62 -18 48 0 43 11 -9 19 -58 9 -69
39 -101 261 -4 31 -6 33 -18 17 -18 -25 -39 -22 -31 6 3 12 9 39 12 61 l7 38
54 -4 c29 -3 58 -9 64 -15 13 -13 17 -49 18 -158 1 -49 5 -96 9 -102 5 -7 36
-18 70 -25 35 -7 63 -17 64 -23 1 -5 -17 -25 -41 -42 -23 -18 -36 -33 -27 -33
20 0 86 58 86 75 0 16 -12 25 -38 30 -10 2 -34 10 -54 18 l-36 15 -7 79 c-3
43 -8 96 -11 118 -6 51 -42 85 -90 85 -19 0 -34 3 -34 8 0 4 9 30 20 57 l20
50 -1 -40 c-1 -61 0 -62 21 -30 11 16 27 63 36 105 10 41 22 81 27 88 15 19
30 10 39 -24z m-1064 9 c5 -10 12 -54 16 -98 8 -100 26 -195 37 -195 5 0 6 6
3 14 -7 18 1 22 62 31 l50 6 40 -63 c21 -34 40 -66 42 -70 3 -7 -267 0 -279 8
-12 7 -21 68 -28 174 l-6 105 -48 3 c-27 2 -47 6 -45 10 3 4 13 26 24 49 19
42 20 43 71 43 40 0 54 -4 61 -17z m3936 -12 c14 -15 15 -24 6 -40 -13 -25
-19 -26 -48 -5 -31 21 -30 64 1 64 13 0 32 -9 41 -19z m-128 -49 c6 -4 14 -17
18 -29 8 -26 -4 -29 -53 -12 -41 14 -44 49 -3 49 15 0 32 -4 38 -8z m-2980
-82 c6 -33 8 -60 5 -60 -4 0 -16 21 -29 46 -17 36 -19 50 -11 60 19 23 25 16
35 -46z m686 -2 c-15 -15 -21 4 -9 32 l10 25 5 -24 c2 -13 -1 -28 -6 -33z
m-1603 25 c3 -2 10 -55 17 -117 17 -160 14 -156 132 -156 121 -1 204 -9 217
-21 5 -5 11 -46 12 -92 2 -45 8 -97 13 -116 6 -24 6 -39 -2 -48 -8 -10 -8 -20
0 -38 7 -15 8 -26 2 -30 -6 -4 -5 -15 2 -28 9 -16 13 -87 13 -257 l0 -235 40
-7 c22 -4 99 -7 171 -7 l131 -1 12 123 c15 152 31 248 40 242 4 -2 4 -32 -1
-67 -4 -35 -12 -121 -17 -192 -5 -70 -15 -133 -21 -140 -14 -14 -221 -11 -296
4 -98 21 -95 12 -94 265 2 252 1 277 -6 284 -3 3 -7 -5 -11 -17 -6 -25 -58
-58 -68 -43 -11 19 -69 41 -105 41 -25 0 -40 5 -44 16 -13 34 -5 54 32 78 31
20 39 31 40 56 1 58 -13 80 -54 80 -26 0 -35 4 -31 13 11 29 -51 80 -100 82
-21 2 -66 5 -99 9 -57 5 -62 4 -57 -13 4 -14 -2 -19 -26 -23 -17 -2 -35 0 -41
6 -14 14 -13 36 3 36 8 0 7 3 -3 9 -19 13 -72 2 -86 -17 -8 -11 -21 -13 -46
-9 -20 3 -40 1 -46 -5 -5 -5 -18 -8 -28 -6 -17 3 -18 12 -15 88 3 90 7 103 21
80 8 -12 10 -12 15 2 6 15 30 13 95 -10 8 -3 27 -4 42 -3 18 2 28 -3 31 -16 2
-10 3 -5 1 11 -3 22 4 38 30 67 19 21 40 57 47 81 7 24 18 46 24 50 9 7 105 0
114 -9z m1675 -1 c-14 -12 -21 -27 -19 -45 2 -15 -1 -25 -6 -21 -24 14 5 85
35 84 6 -1 1 -9 -10 -18z m-397 -18 c16 -4 24 -16 29 -40 5 -25 12 -34 30 -36
14 -2 24 -6 24 -10 0 -5 0 -33 0 -63 l0 -55 -46 0 c-65 0 -81 11 -88 67 -4 26
-9 62 -12 79 -4 21 0 36 11 47 18 19 21 19 52 11z m-927 -19 c0 -8 -4 -15 -10
-15 -5 0 -10 7 -10 15 0 8 5 15 10 15 6 0 10 -7 10 -15z m-35 -32 c4 -14 2
-23 -4 -23 -6 0 -11 3 -11 8 0 4 -3 18 -6 32 -8 31 11 16 21 -17z m365 10 c0
-8 -13 -31 -30 -50 -16 -18 -30 -39 -30 -45 0 -11 -69 61 -70 73 0 7 66 36 95
42 26 5 35 -1 35 -20z m780 8 c0 -5 -9 -7 -20 -4 -11 3 -20 7 -20 9 0 2 9 4
20 4 11 0 20 -4 20 -9z m30 5 c0 -3 -4 -8 -10 -11 -5 -3 -10 -1 -10 4 0 6 5
11 10 11 6 0 10 -2 10 -4z m-1336 -42 c9 -22 -3 -32 -14 -14 -12 19 -12 30 -1
30 5 0 12 -7 15 -16z m2136 -3 c0 -3 -24 -5 -52 -4 -72 3 -77 4 -49 12 27 7
101 2 101 -8z m418 -63 c67 -99 80 -127 87 -184 9 -67 -8 -126 -40 -141 -30
-13 -33 -4 -5 20 28 23 25 61 -11 169 -32 98 -55 142 -89 173 -24 21 -26 35
-5 35 8 0 36 -33 63 -72z m-81 45 c7 -10 18 -27 24 -37 10 -17 7 -17 -27 4
l-39 23 33 -32 c19 -17 38 -28 44 -25 7 4 8 2 4 -4 -4 -7 4 -27 17 -44 28 -36
67 -155 66 -197 0 -20 -4 -15 -18 24 -10 28 -28 70 -41 94 -21 42 -100 127
-147 158 -30 20 -29 33 2 33 14 0 25 5 25 10 0 17 42 11 57 -7z m-2197 -5 c0
-20 -58 -138 -68 -138 -10 0 -64 128 -58 138 2 4 32 9 65 10 45 2 61 0 61 -10z
m496 -54 c-4 -31 -9 -61 -12 -65 -9 -16 -60 -10 -75 9 -17 19 -49 88 -49 102
0 6 32 10 71 10 l72 0 -7 -56z m1485 41 c14 -9 11 -145 -3 -150 -7 -3 -31 -6
-53 -8 l-40 -2 -2 75 c-2 41 -1 80 2 87 4 11 76 10 96 -2z m-2855 -82 c9 -46
-7 -125 -25 -131 -11 -4 -12 0 -6 14 17 39 17 94 1 119 -21 31 -20 35 4 35 14
0 21 -9 26 -37z m-538 -34 c2 -12 -8 -18 -40 -25 -24 -4 -49 -7 -55 -7 -7 0
-13 -3 -13 -8 0 -5 -9 -9 -19 -9 -11 0 -22 -4 -25 -9 -3 -4 -20 -11 -37 -15
-17 -3 -47 -22 -65 -41 -31 -33 -34 -34 -44 -16 -21 40 -15 47 110 124 39 24
54 27 115 25 55 -2 70 -6 73 -19z m2604 -18 c-4 -3 -15 -28 -25 -56 l-17 -50
6 50 c3 28 10 53 15 56 5 3 7 14 4 25 -6 19 -6 19 9 0 9 -11 12 -22 8 -25z
m-2133 -39 c1 -20 -3 -31 -9 -27 -5 3 -10 27 -9 53 0 35 3 42 9 27 5 -11 9
-35 9 -53z m1308 26 c-3 -8 -6 -5 -6 6 -1 11 2 17 5 13 3 -3 4 -12 1 -19z
m1463 -75 c-1 -10 -9 -43 -20 -73 -18 -52 -19 -57 -3 -102 16 -44 16 -51 0
-101 -9 -30 -17 -61 -17 -70 0 -10 -4 -17 -10 -17 -5 0 -10 19 -10 43 0 23 -7
83 -15 132 -16 95 -19 187 -8 198 3 4 24 7 45 7 30 0 38 -4 38 -17z m-3214
-63 c8 0 14 5 14 11 0 13 26 -19 58 -72 l22 -37 -52 5 c-63 5 -118 4 -129 -2
-3 -3 -9 4 -12 15 -3 14 -14 20 -31 20 -14 0 -26 4 -26 9 0 20 13 41 25 41 7
0 15 6 18 13 2 7 23 22 46 32 22 11 42 25 43 30 1 6 3 -7 5 -27 3 -25 9 -38
19 -38z m900 35 c-10 -15 -26 -25 -39 -25 -21 1 -21 1 4 15 15 8 30 22 33 31
4 9 9 14 13 11 3 -4 -2 -18 -11 -32z m2494 24 c0 -12 -67 -116 -81 -124 -4 -3
-15 8 -24 25 -24 46 -9 80 41 96 51 16 64 16 64 3z m-2397 -31 c-3 -19 -1 -28
4 -21 9 13 41 21 42 11 1 -5 1 -12 1 -17 0 -5 -25 -17 -55 -25 -30 -9 -61 -19
-70 -22 -8 -3 -15 -1 -15 6 0 6 4 9 8 6 5 -3 16 8 26 24 l17 29 -43 -24 c-52
-30 -77 -33 -29 -4 18 11 35 29 38 40 4 13 11 18 23 14 10 -3 21 -1 25 5 14
23 31 10 28 -22z m586 -5 c-1 -38 -1 -38 -9 -9 -8 27 -6 46 6 46 2 0 4 -17 3
-37z m-1141 -90 c1 -60 8 -155 16 -213 8 -58 11 -109 7 -113 -16 -16 -46 167
-46 273 1 94 9 160 19 160 2 0 4 -48 4 -107z m2097 65 c-4 -24 -9 -59 -11 -78
-10 -83 -17 -110 -26 -110 -7 0 -8 15 -3 43 4 23 12 65 17 92 4 28 8 60 8 73
0 12 5 22 11 22 8 0 9 -13 4 -42z m-2146 -85 c1 -43 8 -123 16 -177 15 -101
18 -142 8 -118 -2 6 -9 12 -15 12 -5 0 -16 7 -24 15 -11 11 -15 38 -13 112 2
130 10 233 19 233 4 0 8 -35 9 -77z m91 51 c0 6 6 1 14 -9 8 -11 11 -26 8 -33
-3 -8 2 -19 11 -24 12 -6 14 -14 7 -32 -4 -13 -6 -50 -3 -82 4 -47 2 -62 -11
-73 -9 -7 -17 -23 -17 -35 -1 -11 -9 44 -19 124 -18 142 -18 198 1 169 5 -8 9
-10 9 -5z m3014 10 c38 -15 3 -58 -56 -69 -43 -8 -47 -1 -23 45 15 30 43 38
79 24z m-2365 -85 c-15 -30 -229 -94 -229 -68 0 5 8 13 18 16 27 10 62 40 55
47 -3 3 0 7 8 7 53 4 139 30 140 42 0 7 4 3 8 -8 5 -11 5 -27 0 -36z m-390 19
c18 -48 32 -185 22 -211 -9 -24 -13 -26 -37 -16 -15 5 -33 8 -40 5 -17 -7 -28
11 -12 18 7 3 4 5 -7 5 -34 -2 -41 1 -25 11 10 6 11 10 3 10 -19 0 -17 84 2
100 8 7 15 17 15 22 0 12 53 78 63 78 4 0 11 -10 16 -22z m849 -35 c15 -47 9
-53 -12 -12 -18 36 -20 49 -8 49 5 0 14 -17 20 -37z m-1338 -58 c11 0 17 -15
21 -50 3 -27 9 -58 14 -68 7 -16 5 -16 -18 -6 -32 15 -81 4 -73 -16 3 -8 1
-15 -5 -15 -6 0 -7 -5 -4 -10 3 -6 -1 -13 -10 -16 -23 -9 -75 43 -75 75 1 39
36 112 52 106 7 -3 22 6 32 20 l19 26 16 -23 c9 -13 23 -23 31 -23z m1510 25
c0 -5 -2 -10 -4 -10 -3 0 -8 5 -11 10 -3 6 -1 10 4 10 6 0 11 -4 11 -10z
m-881 -30 c18 -25 25 -28 41 -20 37 20 48 12 56 -37 8 -58 21 -95 36 -105 8
-4 6 -18 -6 -47 -14 -29 -17 -56 -14 -100 4 -57 -2 -75 -17 -51 -3 6 -33 10
-66 10 -58 0 -60 1 -81 36 -14 24 -36 43 -65 55 -23 10 -43 25 -43 33 0 8 16
30 36 50 l37 37 -7 79 -6 79 32 4 c18 2 36 5 39 5 3 1 15 -12 28 -28z m4045
-11 c31 -24 26 -39 -12 -39 -32 0 -72 25 -72 46 0 21 53 17 84 -7z m-3854 -25
c0 -36 0 -37 35 -31 48 8 95 -9 95 -34 0 -27 -56 -49 -125 -49 -50 0 -56 2
-65 26 -17 45 -12 91 12 108 36 25 48 20 48 -20z m685 26 c-3 -5 -11 -10 -16
-10 -6 0 -7 5 -4 10 3 6 11 10 16 10 6 0 7 -4 4 -10z m2900 -44 c7 -47 -13
-138 -30 -137 -5 0 -12 11 -14 23 -4 31 19 158 29 158 5 0 12 -20 15 -44z m45
25 c0 -5 -7 -24 -15 -42 l-14 -34 -1 43 c0 31 4 42 15 42 8 0 15 -4 15 -9z
m-1764 -36 c191 -21 183 -19 190 -63 5 -30 13 -43 38 -56 32 -18 106 -105 106
-125 0 -18 -49 -93 -88 -133 -36 -38 -144 -90 -213 -103 -32 -6 -39 -3 -62 25
-25 29 -82 138 -106 202 -8 22 -77 78 -96 78 -16 0 0 -21 30 -39 40 -23 46
-54 14 -72 -12 -6 -53 -11 -91 -11 l-71 0 -3 38 c-6 66 -46 164 -87 210 -21
24 -36 48 -32 54 10 15 312 12 471 -5z m1784 -27 c0 -51 -19 -107 -40 -118
-11 -6 -21 -6 -24 -1 -7 11 46 151 56 151 5 0 8 -15 8 -32z m-2234 -40 c24
-29 64 -109 64 -126 0 -4 -14 16 -31 43 -18 28 -33 51 -34 53 -1 1 -12 5 -25
7 -36 7 -51 24 -37 40 19 22 33 18 63 -17z m-729 -30 c-3 -7 -5 -2 -5 12 0 14
2 19 5 13 2 -7 2 -19 0 -25z m-614 -63 c10 -27 21 -81 24 -119 6 -64 5 -68
-13 -63 -53 16 -74 18 -94 7 -37 -20 -50 2 -50 87 0 74 16 125 42 137 7 2 26
4 43 3 26 -2 32 -8 48 -52z m1362 -13 c27 -40 57 -130 49 -144 -12 -19 -23 -5
-34 45 -7 28 -21 69 -31 89 -31 62 -22 67 16 10z m-251 -6 c64 -27 110 -109
98 -178 -6 -34 -12 -43 -32 -48 -14 -4 -35 -2 -47 3 -19 9 -23 18 -23 59 0 54
-12 85 -43 109 -15 12 -18 23 -13 43 7 30 14 31 60 12z m-2014 -56 c63 -50 62
-97 -3 -102 -34 -3 -34 -12 3 -51 32 -34 32 -51 0 -22 -11 10 -44 22 -73 26
-29 4 -90 13 -137 19 -70 10 -88 16 -103 36 -15 20 -16 27 -5 43 30 42 80 73
131 81 87 14 143 5 187 -30z m538 13 c30 -19 50 -66 61 -147 12 -81 -1 -127
-45 -166 -36 -31 -125 -53 -132 -31 -2 6 -8 11 -14 11 -6 0 -8 -7 -5 -14 4
-10 1 -13 -9 -9 -13 5 -12 10 8 28 13 13 25 23 28 23 23 0 30 5 30 21 0 19
-137 111 -166 111 -8 0 -13 3 -11 8 3 4 -8 7 -24 8 -56 2 -70 31 -47 105 9 30
16 39 34 39 22 0 90 13 164 30 43 10 97 3 128 -17z m783 -10 c54 -32 59 -106
9 -133 -52 -28 -110 2 -110 56 0 35 21 83 38 87 29 8 33 7 63 -10z m-1143 -50
c-5 -20 -8 -49 -6 -65 3 -16 1 -27 -4 -26 -12 4 -12 6 -4 78 4 33 11 58 16 55
4 -3 4 -21 -2 -42z m1565 20 l38 -6 -6 -51 c-11 -76 -16 -82 -94 -94 -99 -17
-148 -15 -155 4 -9 24 4 87 24 114 15 19 31 26 77 31 32 3 63 7 68 7 6 1 27
-1 48 -5z m2985 -51 c2 -22 -2 -34 -13 -38 -21 -8 -27 -1 -27 31 0 14 -5 25
-10 25 -10 0 -6 -28 8 -64 10 -25 -31 -20 -49 7 l-16 22 6 -22 c5 -22 5 -22
-26 -7 l-31 16 21 29 c11 16 24 27 29 24 5 -3 12 -1 15 5 4 6 26 10 48 8 39
-3 42 -5 45 -36z m-4053 -10 c18 -12 35 -86 35 -154 0 -67 -14 -123 -37 -146
-7 -7 -13 -18 -13 -23 0 -5 -4 -9 -9 -9 -4 0 -2 23 5 52 16 61 19 225 4 262
-10 26 -4 32 15 18z m2375 -35 c0 -13 -7 -32 -15 -43 -13 -18 -14 -16 -15 24
0 31 4 42 15 42 9 0 15 -9 15 -23z m32 1 c4 -61 -8 -108 -28 -108 -13 0 -15 6
-10 28 4 15 9 44 13 65 6 41 22 50 25 15z m-908 -54 c14 -26 26 -48 26 -49 0
-1 -13 -2 -30 -3 -29 -1 -30 0 -30 49 0 27 2 49 4 49 2 0 16 -21 30 -46z
m-2365 16 c113 -21 145 -35 244 -114 20 -15 15 -62 -4 -50 -6 3 -8 13 -4 22 3
9 3 13 -1 10 -3 -4 -16 2 -27 13 -23 21 -77 39 -119 39 -15 0 -29 4 -33 10 -3
5 -12 7 -20 3 -8 -3 -15 -1 -15 4 0 6 -12 10 -27 10 -56 -1 -108 7 -115 17 -8
12 -38 -11 -38 -30 0 -8 -5 -14 -11 -14 -13 0 -3 68 13 88 14 16 25 15 157 -8z
m3191 -24 c0 -25 -4 -47 -9 -50 -7 -5 -68 10 -79 20 -5 3 71 73 81 74 4 0 7
-20 7 -44z m-924 -6 c19 0 34 -4 34 -8 0 -12 -87 -71 -94 -65 -3 4 -6 24 -6
46 0 32 3 38 16 33 9 -3 31 -6 50 -6z m34 -60 c0 -13 -28 -25 -38 -16 -3 4 0
11 8 16 20 13 30 12 30 0z m1008 -30 c23 0 32 -5 32 -16 0 -14 -7 -15 -42 -10
-47 8 -74 27 -63 46 5 8 12 7 24 -4 10 -9 32 -16 49 -16z m-1170 -25 c1 -11
-4 -29 -12 -40 -15 -20 -15 -20 -43 8 -28 28 -28 28 -8 43 26 20 59 14 63 -11z
m152 5 c0 -5 -4 -20 -10 -34 -8 -23 -15 -26 -55 -26 -25 0 -45 5 -45 11 0 13
20 52 31 60 13 8 79 -2 79 -11z m-2242 -1 c55 -13 77 -31 69 -53 -8 -20 -106
-23 -125 -4 -15 15 -16 68 -1 68 5 0 31 -5 57 -11z m3422 -34 c0 -33 -20 -75
-36 -75 -8 0 -21 14 -29 31 -15 29 -15 32 1 50 9 10 28 19 41 19 18 0 23 -5
23 -25z m-2413 -66 c14 -14 -3 -59 -22 -59 -19 0 -48 38 -42 55 7 18 48 20 64
4z m2007 -27 c18 -64 17 -81 -3 -91 -27 -15 -81 -14 -82 2 -3 26 3 43 27 79
25 38 49 42 58 10z m351 -70 c-12 -13 -24 22 -12 37 10 12 13 11 15 -8 2 -13
1 -26 -3 -29z m-3547 -4 c32 -32 -1 -83 -46 -71 -29 7 -29 47 0 67 27 19 31
19 46 4z m2182 -42 c-14 -17 -55 -21 -65 -7 -3 5 7 19 22 31 23 18 28 19 41 6
13 -12 13 -18 2 -30z m-1155 7 c8 -21 -29 -55 -50 -46 -18 6 -19 17 -5 44 13
24 46 25 55 2z"/>
<path d="M6750 5515 c0 -8 5 -15 10 -15 6 0 10 7 10 15 0 8 -4 15 -10 15 -5 0
-10 -7 -10 -15z"/>
<path d="M6765 5470 c-3 -5 1 -10 9 -10 9 0 16 5 16 10 0 6 -4 10 -9 10 -6 0
-13 -4 -16 -10z"/>
<path d="M7013 5384 c-3 -8 -1 -20 6 -27 8 -8 11 -4 11 16 0 30 -7 35 -17 11z"/>
<path d="M6419 5369 c-16 -31 3 -69 35 -69 48 0 56 66 10 84 -25 10 -33 7 -45
-15z m55 -8 c10 -16 -6 -42 -23 -39 -9 2 -17 13 -19 26 -3 16 2 22 17 22 11 0
22 -4 25 -9z"/>
<path d="M4307 4372 c-22 -24 -21 -35 3 -57 19 -17 21 -17 40 0 25 22 25 37 2
58 -23 21 -25 21 -45 -1z m40 -18 c7 -18 -17 -38 -31 -24 -11 11 -1 40 14 40
6 0 13 -7 17 -16z"/>
<path d="M4133 4190 c-27 -11 -30 -45 -7 -78 30 -43 84 -14 84 45 0 41 -28 53
-77 33z"/>
<path d="M5480 4714 c0 -8 5 -12 10 -9 6 3 10 10 10 16 0 5 -4 9 -10 9 -5 0
-10 -7 -10 -16z"/>
<path d="M5376 4272 c-9 -15 13 -86 30 -99 15 -11 21 -10 36 4 23 21 25 88 2
97 -22 9 -62 7 -68 -2z"/>
<path d="M2882 4478 c6 -18 28 -21 28 -4 0 9 -7 16 -16 16 -9 0 -14 -5 -12
-12z"/>
<path d="M2750 4210 c-24 -24 -26 -53 -5 -70 32 -27 86 21 66 59 -16 29 -39
33 -61 11z m38 -32 c-2 -13 -10 -23 -18 -23 -8 0 -16 10 -18 23 -3 17 2 22 18
22 16 0 21 -5 18 -22z"/>
<path d="M3206 4217 c-22 -16 -18 -65 6 -81 13 -8 22 -6 37 8 25 23 27 49 5
70 -19 19 -25 20 -48 3z m44 -36 c0 -3 -4 -12 -9 -20 -8 -12 -12 -12 -25 -2
-12 10 -13 18 -5 33 8 15 13 17 25 7 8 -6 14 -14 14 -18z"/>
<path d="M3310 4070 c8 -5 22 -9 30 -9 10 0 8 3 -5 9 -27 12 -43 12 -25 0z"/>
<path d="M2990 4012 c0 -43 31 -85 58 -80 22 4 42 45 42 86 0 32 0 32 -50 32
l-50 0 0 -38z"/>
<path d="M2874 3874 c-17 -14 -17 -15 -1 -10 10 3 30 6 43 6 14 0 22 4 19 10
-9 15 -39 12 -61 -6z"/>
<path d="M3332 3780 c0 -14 2 -19 5 -12 2 6 2 18 0 25 -3 6 -5 1 -5 -13z"/>
<path d="M3285 3771 c-3 -5 -1 -12 5 -16 5 -3 10 1 10 9 0 18 -6 21 -15 7z"/>
<path d="M2448 3783 c6 -2 18 -2 25 0 6 3 1 5 -13 5 -14 0 -19 -2 -12 -5z"/>
<path d="M3290 3500 c0 -5 5 -10 10 -10 6 0 10 5 10 10 0 6 -4 10 -10 10 -5 0
-10 -4 -10 -10z"/>
<path d="M2852 3415 c0 -16 2 -22 5 -12 2 9 2 23 0 30 -3 6 -5 -1 -5 -18z"/>
<path d="M2619 3093 c-13 -16 -12 -17 4 -4 16 13 21 21 13 21 -2 0 -10 -8 -17
-17z"/>
<path d="M4109 3109 c-21 -21 -25 -59 -7 -77 20 -20 56 -14 74 13 14 22 15 30
4 50 -17 32 -47 38 -71 14z"/>
<path d="M3130 5054 c0 -5 -30 -42 -66 -82 -37 -40 -65 -75 -62 -77 2 -3 31
22 63 55 33 33 62 60 65 60 3 0 19 -27 35 -60 17 -33 34 -60 39 -60 4 0 17 11
28 25 25 32 41 22 36 -21 -2 -19 -3 -34 -2 -34 1 0 36 16 78 35 43 19 79 35
81 35 2 0 -5 -31 -16 -70 -27 -98 -26 -110 9 -78 53 49 86 44 51 -8 -25 -38
-24 -41 11 -46 32 -5 41 6 14 16 -11 4 -13 10 -7 19 5 6 15 25 21 41 l13 29
-51 -6 c-27 -3 -50 -5 -50 -4 0 1 9 34 20 72 11 38 20 73 20 76 0 4 -35 -13
-77 -37 -46 -26 -81 -40 -86 -35 -5 5 -8 30 -6 55 3 25 2 46 0 46 -2 0 -19
-18 -38 -40 -19 -22 -38 -40 -42 -40 -4 0 -18 26 -31 58 -22 54 -50 97 -50 76z"/>
<path d="M2772 4961 c-24 -40 -52 -81 -62 -91 -21 -21 -26 -40 -11 -40 12 0
50 51 81 108 25 44 37 52 46 27 4 -8 11 -15 16 -15 7 0 7 4 1 13 -6 6 -14 25
-19 40 -10 29 -10 29 -52 -42z"/>
<path d="M2926 4956 c-15 -25 -30 -46 -33 -46 -4 0 -15 7 -25 17 -22 20 -24
10 -2 -12 13 -12 14 -19 5 -28 -15 -15 -14 -37 3 -37 8 0 29 25 46 55 28 48
34 54 47 43 14 -11 15 -10 8 12 -13 43 -22 43 -49 -4z"/>
<path d="M2662 4885 c-13 -36 -28 -65 -32 -65 -5 0 -25 9 -44 21 -20 12 -36
19 -36 16 0 -8 89 -67 100 -67 5 0 14 25 20 56 10 46 14 53 26 43 11 -9 14 -8
14 2 0 23 -12 59 -19 59 -3 0 -17 -29 -29 -65z"/>
<path d="M2511 4843 c4 -26 9 -72 12 -100 3 -44 1 -53 -12 -53 -10 0 -21 4
-26 9 -10 9 -85 25 -85 18 0 -2 23 -45 50 -94 29 -52 48 -97 44 -106 -4 -12
-1 -14 15 -10 29 8 27 19 -23 103 -24 41 -40 77 -35 78 5 2 28 -5 51 -17 23
-11 43 -19 45 -17 2 2 0 55 -4 117 -7 93 -11 114 -24 117 -14 3 -15 -4 -8 -45z"/>
<path d="M3535 4730 c3 -5 11 -10 16 -10 6 0 7 5 4 10 -3 6 -11 10 -16 10 -6
0 -7 -4 -4 -10z"/>
<path d="M3555 4570 c3 -5 8 -10 11 -10 2 0 4 5 4 10 0 6 -5 10 -11 10 -5 0
-7 -4 -4 -10z"/>
<path d="M6109 1973 c-1 -5 -2 -28 -3 -53 -1 -33 -5 -44 -15 -42 -56 12 -69
11 -99 -8 -77 -48 -84 -203 -11 -254 29 -20 56 -20 94 0 19 10 31 11 33 5 2
-6 12 -11 23 -11 18 0 19 9 19 185 0 178 -1 185 -20 185 -11 0 -21 -3 -21 -7z
m-5 -155 c13 -50 7 -134 -11 -150 -84 -72 -161 47 -97 150 11 17 24 22 58 22
37 0 45 -4 50 -22z"/>
<path d="M3680 1789 l0 -181 86 3 c82 4 87 5 115 37 39 43 40 102 3 139 -24
24 -24 26 -8 45 22 24 23 83 2 104 -19 20 -78 33 -145 34 l-53 0 0 -181z m156
120 c20 -16 17 -46 -7 -70 -15 -15 -30 -19 -62 -17 -41 3 -42 4 -45 42 -5 62
1 70 55 62 25 -3 52 -11 59 -17z m8 -145 c21 -20 20 -78 0 -95 -9 -7 -39 -13
-68 -14 l-51 0 -3 63 -3 62 55 0 c36 0 60 -5 70 -16z"/>
<path d="M4367 1964 c-4 -4 -7 -85 -7 -181 0 -166 1 -173 20 -173 19 0 20 7
20 147 0 106 3 144 11 136 6 -6 41 -71 77 -144 60 -120 70 -134 95 -137 l27
-3 -2 178 c-3 160 -5 178 -20 181 -16 3 -18 -8 -18 -134 0 -98 -3 -135 -11
-127 -6 6 -38 66 -72 134 -53 106 -66 124 -87 127 -14 2 -29 0 -33 -4z"/>
<path d="M5377 1953 c-4 -3 -7 -21 -7 -39 0 -19 -6 -34 -15 -38 -8 -3 -15 -12
-15 -21 0 -8 7 -15 15 -15 12 0 15 -16 15 -85 0 -46 5 -95 11 -109 16 -34 57
-50 93 -36 32 12 29 36 -4 32 -42 -4 -50 14 -50 109 l0 88 38 3 c25 2 37 8 37
18 0 10 -12 16 -37 18 -32 3 -38 7 -38 27 0 45 -22 70 -43 48z"/>
<path d="M4009 1872 c-48 -24 -71 -73 -66 -140 5 -66 31 -103 85 -120 56 -18
125 1 130 36 4 26 4 26 -43 6 -62 -26 -119 -1 -127 56 -3 25 -2 25 85 28 89 3
91 4 88 47 -7 80 -81 123 -152 87z m92 -43 c36 -36 22 -54 -49 -57 -57 -3 -62
-1 -62 18 0 28 35 60 65 60 14 0 34 -9 46 -21z"/>
<path d="M4720 1881 c-26 -5 -36 -12 -38 -28 -2 -13 -2 -23 0 -23 2 0 18 4 36
10 45 12 90 2 98 -22 8 -26 3 -30 -58 -39 -63 -10 -98 -43 -98 -92 0 -68 60
-104 121 -73 24 12 35 13 45 5 31 -26 38 -5 35 106 -1 60 -7 117 -12 127 -13
25 -73 38 -129 29z m100 -172 c0 -37 -3 -41 -36 -55 -32 -14 -38 -13 -60 1
-27 17 -29 27 -13 56 12 23 42 37 82 38 25 1 27 -2 27 -40z"/>
<path d="M5570 1881 c-27 -5 -36 -11 -38 -29 -3 -19 0 -23 15 -18 77 23 127
12 121 -27 -2 -18 -11 -23 -48 -27 -76 -10 -110 -39 -110 -95 0 -33 50 -85 82
-85 13 0 34 7 47 16 17 12 26 13 34 5 6 -6 19 -11 30 -11 17 0 18 8 15 115 -3
99 -6 117 -23 134 -23 22 -75 31 -125 22z m100 -170 c0 -41 -10 -55 -49 -64
-46 -11 -81 26 -60 64 12 23 42 37 82 38 25 1 27 -2 27 -38z"/>
<path d="M4930 1745 c0 -128 1 -135 20 -135 19 0 20 7 20 94 0 87 2 96 22 110
12 9 33 16 46 16 26 0 40 26 23 43 -8 8 -20 6 -46 -6 -43 -21 -45 -21 -45 -2
0 8 -9 15 -20 15 -19 0 -20 -7 -20 -135z"/>
<path d="M5100 1770 c0 -84 4 -117 16 -135 21 -32 65 -41 106 -20 21 10 34 12
36 5 2 -5 12 -10 23 -10 18 0 19 9 19 136 0 124 -2 135 -17 132 -15 -3 -18
-17 -21 -99 -2 -76 -6 -100 -20 -112 -31 -27 -59 -30 -81 -8 -18 18 -21 34
-21 121 0 93 -1 100 -20 100 -19 0 -20 -7 -20 -110z"/>
<path d="M5780 1745 c0 -128 1 -135 20 -135 19 0 20 7 20 94 0 87 2 96 22 110
12 9 33 16 46 16 26 0 40 26 23 43 -8 8 -20 6 -46 -6 -43 -21 -45 -21 -45 -2
0 8 -9 15 -20 15 -19 0 -20 -7 -20 -135z"/>
<path d="M6225 1669 c-4 -5 -4 -21 -1 -35 5 -17 13 -24 31 -24 22 0 25 4 25
35 0 30 -3 35 -24 35 -14 0 -28 -5 -31 -11z"/>
<path d="M9458 389 l4 -60 31 3 c25 2 33 8 35 27 2 13 -1 28 -7 34 -6 6 -11
19 -11 28 0 9 -7 20 -16 23 -35 13 -39 7 -36 -55z m29 19 c-3 -7 -5 -2 -5 12
0 14 2 19 5 13 2 -7 2 -19 0 -25z m-1 -35 c-5 -15 -4 -15 9 1 13 17 15 17 15
4 0 -9 -5 -20 -11 -24 -14 -8 -33 11 -25 25 11 17 19 13 12 -6z"/>
<path d="M9686 428 c-11 -44 -7 -98 8 -98 12 0 13 11 9 55 -5 47 -3 55 11 55
9 0 17 -4 17 -10 1 -5 2 -16 3 -22 1 -7 -1 -25 -5 -40 -7 -25 -6 -27 12 -18
23 13 26 62 3 84 -22 23 -51 20 -58 -6z"/>
<path d="M9780 389 c0 -33 4 -59 10 -59 6 0 10 10 10 22 l0 21 23 -21 c13 -12
30 -22 37 -22 9 0 6 6 -8 15 -17 13 -21 23 -16 50 5 34 -1 43 -36 50 -18 4
-20 -1 -20 -56z m40 16 c0 -8 -4 -17 -10 -20 -6 -4 -10 5 -10 20 0 15 4 24 10
20 6 -3 10 -12 10 -20z"/>
<path d="M9891 424 c-35 -45 -25 -94 19 -94 20 0 31 6 35 20 8 26 -1 40 -28
40 -20 0 -20 0 -1 -14 15 -11 16 -17 7 -27 -15 -15 -43 -5 -43 16 0 9 11 27
25 41 14 14 25 29 25 34 0 18 -18 10 -39 -16z"/>
<path d="M9552 365 c1 -14 10 -28 21 -31 22 -7 17 -30 -7 -28 -9 1 -16 -4 -16
-12 0 -17 32 -18 48 -2 7 7 12 32 11 58 0 40 -2 42 -11 22 -13 -25 -34 -24
-32 2 1 9 -2 16 -7 16 -5 0 -8 -11 -7 -25z"/>
<path d="M9635 381 c-6 -11 9 -23 19 -14 9 9 7 23 -3 23 -6 0 -12 -4 -16 -9z"/>
<path d="M9892 368 c5 -15 28 -23 28 -10 0 5 -7 13 -16 16 -10 4 -14 1 -12 -6z"/>
<path d="M9635 340 c-3 -5 1 -10 9 -10 9 0 16 5 16 10 0 6 -4 10 -9 10 -6 0
-13 -4 -16 -10z"/>
</g>
</svg>
